{
  "accessors": [
    {
      "bufferView": 2,
      "componentType": 5126,
      "count": 2951,
      "max": [
        45.79459762573242,
        82.0581283569336,
        41.70804977416992
      ],
      "min": [
        -45.79447937011719,
        0.0,
        -50.96071243286133
      ],
      "type": "VEC3"
    },
    {
      "bufferView": 2,
      "byteOffset": 35412,
      "componentType": 5126,
      "count": 2951,
      "type": "VEC3"
    },
    {
      "bufferView": 3,
      "componentType": 5126,
      "count": 2951,
      "type": "VEC4"
    },
    {
      "bufferView": 1,
      "componentType": 5126,
      "count": 2951,
      "type": "VEC2"
    },
    {
      "bufferView": 0,
      "componentType": 5125,
      "count": 15156,
      "type": "SCALAR"
    }
  ],
  "asset": {
    "version": "2.0"
  },
  "bufferViews": [
    {
      "buffer": 0,
      "byteLength": 60624,
      "target": 34963
    },
    {
      "buffer": 0,
      "byteLength": 23608,
      "byteOffset": 60624,
      "byteStride": 8,
      "target": 34962
    },
    {
      "buffer": 0,
      "byteLength": 70824,
      "byteOffset": 84232,
      "byteStride": 12,
      "target": 34962
    },
    {
      "buffer": 0,
      "byteLength": 47216,
      "byteOffset": 155056,
      "byteStride": 16,
      "target": 34962
    }
  ],
  "buffers": [
    {
      "byteLength": 202272,
      "uri": "scene.bin"
    }
  ],
  "images": [
    {
      "uri": "textures/M_Chair_BaseColor.jpeg"
    },
    {
      "uri": "textures/M_Chair_ORM.jpeg"
    },
    {
      "uri": "textures/M_Chair_Normal.jpeg"
    }
  ],
  "materials": [
    {
      "doubleSided": true,
      "name": "M_Chair",
      "normalTexture": {
        "index": 2
      },
      "pbrMetallicRoughness": {
        "baseColorTexture": {
          "index": 0
        },
        "metallicFactor": 0.0,
        "metallicRoughnessTexture": {
          "index": 1
        },
        "roughnessFactor": 0.600000024
      }
    }
  ],
  "meshes": [
    {
      "name": "Swivel_Chair_M_Chair_0",
      "primitives": [
        {
          "attributes": {
            "NORMAL": 1,
            "POSITION": 0,
            "TANGENT": 2,
            "TEXCOORD_0": 3
          },
          "indices": 4,
          "material": 0,
          "mode": 4
        }
      ]
    }
  ],
  "nodes": [
    {
      "children": [
        1
      ],
      "matrix": [
        1.0,
        0.0,
        0.0,
        0.0,
        0.0,
        2.220446049250313e-16,
        -1.0,
        0.0,
        0.0,
        1.0,
        2.220446049250313e-16,
        0.0,
        0.0,
        0.0,
        0.0,
        1.0
      ],
      "name": "Sketchfab_model"
    },
    {
      "children": [
        2
      ],
      "matrix": [
        0.009999999776482582,
        0.0,
        0.0,
        0.0,
        0.0,
        0.0,
        0.009999999776482582,
        0.0,
        0.0,
        -0.009999999776482582,
        0.0,
        0.0,
        0.0,
        0.0,
        0.0,
        1.0
      ],
      "name": "swivel_chair.fbx"
    },
    {
      "children": [
        3
      ],
      "name": "RootNode"
    },
    {
      "children": [
        4
      ],
      "matrix": [
        1.0,
        0.0,
        0.0,
        0.0,
        0.0,
        1.0,
        0.0,
        0.0,
        0.0,
        0.0,
        1.0,
        0.0,
        8.382183835919932e-15,
        0.0,
        3.730349362740526e-14,
        1.0
      ],
      "name": "Swivel_Chair"
    },
    {
      "mesh": 0,
      "name": "Swivel_Chair_M_Chair_0"
    }
  ],
  "samplers": [
    {
      "magFilter": 9729,
      "minFilter": 9987,
      "wrapS": 10497,
      "wrapT": 10497
    }
  ],
  "scene": 0,
  "scenes": [
    {
      "name": "Sketchfab_Scene",
      "nodes": [
        0
      ]
    }
  ],
  "textures": [
    {
      "sampler": 0,
      "source": 0
    },
    {
      "sampler": 0,
      "source": 1
    },
    {
      "sampler": 0,
      "source": 2
    }
  ]
}
