{
  "accessors": [
    {
      "bufferView": 2,
      "componentType": 5126,
      "count": 11693,
      "max": [
        1.2924072742462158,
        0.5078741312026978,
        0.5256550312042236
      ],
      "min": [
        -1.6716870069503784,
        -0.6895815134048462,
        -0.6226380467414856
      ],
      "type": "VEC3"
    },
    {
      "bufferView": 2,
      "byteOffset": 140316,
      "componentType": 5126,
      "count": 11693,
      "type": "VEC3"
    },
    {
      "bufferView": 3,
      "componentType": 5126,
      "count": 11693,
      "type": "VEC4"
    },
    {
      "bufferView": 1,
      "componentType": 5126,
      "count": 11693,
      "type": "VEC2"
    },
    {
      "bufferView": 0,
      "componentType": 5125,
      "count": 59166,
      "type": "SCALAR"
    },
    {
      "bufferView": 2,
      "byteOffset": 280632,
      "componentType": 5126,
      "count": 2946,
      "max": [
        1.3954248428344727,
        0.2906267046928406,
        0.3734191358089447
      ],
      "min": [
        -1.5092045068740845,
        -0.15654626488685608,
        -0.5029375553131104
      ],
      "type": "VEC3"
    },
    {
      "bufferView": 2,
      "byteOffset": 315984,
      "componentType": 5126,
      "count": 2946,
      "type": "VEC3"
    },
    {
      "bufferView": 3,
      "byteOffset": 187088,
      "componentType": 5126,
      "count": 2946,
      "type": "VEC4"
    },
    {
      "bufferView": 1,
      "byteOffset": 93544,
      "componentType": 5126,
      "count": 2946,
      "type": "VEC2"
    },
    {
      "bufferView": 0,
      "byteOffset": 236664,
      "componentType": 5125,
      "count": 16578,
      "type": "SCALAR"
    }
  ],
  "asset": {
    "generator": "fab-model-conversion",
    "version": "2.0"
  },
  "bufferViews": [
    {
      "buffer": 0,
      "byteLength": 302976,
      "target": 34963
    },
    {
      "buffer": 0,
      "byteLength": 117112,
      "byteOffset": 302976,
      "byteStride": 8,
      "target": 34962
    },
    {
      "buffer": 0,
      "byteLength": 351336,
      "byteOffset": 420088,
      "byteStride": 12,
      "target": 34962
    },
    {
      "buffer": 0,
      "byteLength": 234224,
      "byteOffset": 771424,
      "byteStride": 16,
      "target": 34962
    }
  ],
  "buffers": [
    {
      "byteLength": 1005648,
      "uri": "scene.bin"
    }
  ],
  "images": [
    {
      "uri": "textures/Couch_baseColor.jpeg"
    },
    {
      "uri": "textures/Couch_metallicRoughness.png"
    },
    {
      "uri": "textures/Couch_normal.jpeg"
    },
    {
      "uri": "textures/blanket_baseColor.jpeg"
    },
    {
      "uri": "textures/blanket_metallicRoughness.png"
    },
    {
      "uri": "textures/blanket_normal.jpeg"
    }
  ],
  "materials": [
    {
      "name": "Couch",
      "normalTexture": {
        "index": 2
      },
      "pbrMetallicRoughness": {
        "baseColorTexture": {
          "index": 0
        },
        "metallicRoughnessTexture": {
          "index": 1
        }
      }
    },
    {
      "doubleSided": true,
      "name": "blanket",
      "normalTexture": {
        "index": 5
      },
      "pbrMetallicRoughness": {
        "baseColorTexture": {
          "index": 3
        },
        "metallicRoughnessTexture": {
          "index": 4
        }
      }
    }
  ],
  "meshes": [
    {
      "name": "couch_Couch_0",
      "primitives": [
        {
          "attributes": {
            "NORMAL": 1,
            "POSITION": 0,
            "TANGENT": 2,
            "TEXCOORD_0": 3
          },
          "indices": 4,
          "material": 0,
          "mode": 4
        }
      ]
    },
    {
      "name": "couch_blanket_0",
      "primitives": [
        {
          "attributes": {
            "NORMAL": 6,
            "POSITION": 5,
            "TANGENT": 7,
            "TEXCOORD_0": 8
          },
          "indices": 9,
          "material": 1,
          "mode": 4
        }
      ]
    }
  ],
  "nodes": [
    {
      "children": [
        1
      ],
      "matrix": [
        1.0,
        0.0,
        0.0,
        0.0,
        0.0,
        2.220446049250313e-16,
        -1.0,
        0.0,
        0.0,
        1.0,
        2.220446049250313e-16,
        0.0,
        0.0,
        0.0,
        0.0,
        1.0
      ],
      "name": "Sketchfab_model"
    },
    {
      "children": [
        2
      ],
      "matrix": [
        1.0,
        0.0,
        0.0,
        0.0,
        0.0,
        0.0,
        1.0,
        0.0,
        0.0,
        -1.0,
        0.0,
        0.0,
        0.0,
        0.0,
        0.0,
        1.0
      ],
      "name": "723d77e81ced4342b0e9452d2affe4e8.fbx"
    },
    {
      "children": [
        3
      ],
      "name": "RootNode"
    },
    {
      "children": [
        4,
        5
      ],
      "matrix": [
        100.0,
        0.0,
        0.0,
        0.0,
        0.0,
        -1.629206793918314e-05,
        -99.99999999999868,
        0.0,
        0.0,
        99.99999999999868,
        -1.629206793918314e-05,
        0.0,
        0.0,
        0.0,
        0.0,
        1.0
      ],
      "name": "couch"
    },
    {
      "mesh": 0,
      "name": "couch_Couch_0"
    },
    {
      "mesh": 1,
      "name": "couch_blanket_0"
    }
  ],
  "samplers": [
    {
      "magFilter": 9729,
      "minFilter": 9987,
      "wrapS": 10497,
      "wrapT": 10497
    }
  ],
  "scene": 0,
  "scenes": [
    {
      "name": "Sketchfab_Scene",
      "nodes": [
        0
      ]
    }
  ],
  "textures": [
    {
      "sampler": 0,
      "source": 0
    },
    {
      "sampler": 0,
      "source": 1
    },
    {
      "sampler": 0,
      "source": 2
    },
    {
      "sampler": 0,
      "source": 3
    },
    {
      "sampler": 0,
      "source": 4
    },
    {
      "sampler": 0,
      "source": 5
    }
  ]
}
