{
  "accessors": [
    {
      "bufferView": 2,
      "componentType": 5126,
      "count": 2589,
      "max": [
        9.992831230163574,
        8.982779502868652,
        8.679957389831543
      ],
      "min": [
        -9.996792793273926,
        -1.398339867591858,
        -0.04369707778096199
      ],
      "type": "VEC3"
    },
    {
      "bufferView": 2,
      "byteOffset": 31068,
      "componentType": 5126,
      "count": 2589,
      "type": "VEC3"
    },
    {
      "bufferView": 3,
      "componentType": 5126,
      "count": 2589,
      "type": "VEC4"
    },
    {
      "bufferView": 1,
      "componentType": 5126,
      "count": 2589,
      "type": "VEC2"
    },
    {
      "bufferView": 1,
      "byteOffset": 20712,
      "componentType": 5126,
      "count": 2589,
      "type": "VEC2"
    },
    {
      "bufferView": 1,
      "byteOffset": 41424,
      "componentType": 5126,
      "count": 2589,
      "type": "VEC2"
    },
    {
      "bufferView": 0,
      "componentType": 5125,
      "count": 11280,
      "type": "SCALAR"
    }
  ],
  "asset": {
    "generator": "fab-model-conversion",
    "version": "2.0"
  },
  "bufferViews": [
    {
      "buffer": 0,
      "byteLength": 45120,
      "target": 34963
    },
    {
      "buffer": 0,
      "byteLength": 62136,
      "byteOffset": 45120,
      "byteStride": 8,
      "target": 34962
    },
    {
      "buffer": 0,
      "byteLength": 62136,
      "byteOffset": 107256,
      "byteStride": 12,
      "target": 34962
    },
    {
      "buffer": 0,
      "byteLength": 41424,
      "byteOffset": 169392,
      "byteStride": 16,
      "target": 34962
    }
  ],
  "buffers": [
    {
      "byteLength": 210816,
      "uri": "scene.bin"
    }
  ],
  "images": [
    {
      "uri": "textures/Sofa_baseColor.png"
    },
    {
      "uri": "textures/Sofa_metallicRoughness.png"
    },
    {
      "uri": "textures/Sofa_normal.png"
    }
  ],
  "materials": [
    {
      "doubleSided": true,
      "name": "Sofa",
      "normalTexture": {
        "index": 2
      },
      "pbrMetallicRoughness": {
        "baseColorTexture": {
          "index": 0
        },
        "metallicRoughnessTexture": {
          "index": 1
        }
      }
    }
  ],
  "meshes": [
    {
      "name": "Sofa_Sofa_0",
      "primitives": [
        {
          "attributes": {
            "NORMAL": 1,
            "POSITION": 0,
            "TANGENT": 2,
            "TEXCOORD_0": 3,
            "TEXCOORD_1": 4,
            "TEXCOORD_2": 5
          },
          "indices": 6,
          "material": 0,
          "mode": 4
        }
      ]
    }
  ],
  "nodes": [
    {
      "children": [
        1
      ],
      "matrix": [
        1.0,
        0.0,
        0.0,
        0.0,
        0.0,
        2.220446049250313e-16,
        -1.0,
        0.0,
        0.0,
        1.0,
        2.220446049250313e-16,
        0.0,
        0.0,
        0.0,
        0.0,
        1.0
      ],
      "name": "Sketchfab_model"
    },
    {
      "children": [
        2
      ],
      "matrix": [
        0.009999999776482582,
        0.0,
        0.0,
        0.0,
        0.0,
        0.0,
        0.009999999776482582,
        0.0,
        0.0,
        -0.009999999776482582,
        0.0,
        0.0,
        0.0,
        0.0,
        0.0,
        1.0
      ],
      "name": "110d28ae275e49a583f63ba08394ce2c.fbx"
    },
    {
      "children": [
        3
      ],
      "name": "RootNode"
    },
    {
      "children": [
        4
      ],
      "matrix": [
        100.0,
        0.0,
        0.0,
        0.0,
        0.0,
        -2.8212996916465727e-05,
        -99.99999999999602,
        0.0,
        0.0,
        99.99999999999602,
        -2.8212996916465727e-05,
        0.0,
        0.0,
        0.0,
        0.0,
        1.0
      ],
      "name": "Sofa"
    },
    {
      "mesh": 0,
      "name": "Sofa_Sofa_0"
    }
  ],
  "samplers": [
    {
      "magFilter": 9729,
      "minFilter": 9987,
      "wrapS": 10497,
      "wrapT": 10497
    }
  ],
  "scene": 0,
  "scenes": [
    {
      "name": "Sketchfab_Scene",
      "nodes": [
        0
      ]
    }
  ],
  "textures": [
    {
      "sampler": 0,
      "source": 0
    },
    {
      "sampler": 0,
      "source": 1
    },
    {
      "sampler": 0,
      "source": 2
    }
  ]
}
